<svg xmlns="http://www.w3.org/2000/svg" viewBox="0 0 671.8 671.8">
  <g fill="#425A70">
    <path d="M335.9 0c-91.2 0-102.7.4-138.5 2A246.5 246.5 0 0 0 116 17.6C93.8 26.2 75 37.7 56.4 56.4a164.6 164.6 0 0 0-38.8 59.5c-8.3 21.3-14 45.8-15.6 81.5-1.6 35.8-2 47.3-2 138.5s.4 102.7 2 138.5c1.7 35.7 7.3 60.2 15.6 81.5 8.6 22.1 20.1 40.8 38.8 59.5a164.7 164.7 0 0 0 59.5 38.8c21.3 8.3 45.8 14 81.5 15.6 35.8 1.6 47.3 2 138.5 2s102.7-.4 138.5-2c35.7-1.7 60.2-7.3 81.5-15.6 22.1-8.6 40.8-20.1 59.5-38.8a164.7 164.7 0 0 0 38.8-59.5c8.3-21.3 14-45.8 15.6-81.5 1.6-35.8 2-47.3 2-138.5s-.4-102.7-2-138.5a246.5 246.5 0 0 0-15.6-81.5C645.6 93.8 634 75 615.4 56.4A164.7 164.7 0 0 0 556 17.6c-21.3-8.3-45.8-14-81.5-15.6C438.6.4 427 0 335.9 0zm0 60.5c89.7 0 100.3.4 135.7 2 32.8 1.5 50.6 7 62.4 11.5a104 104 0 0 1 38.6 25.2 104 104 0 0 1 25.1 38.6c4.6 11.8 10.1 29.6 11.6 62.4 1.6 35.4 2 46 2 135.7 0 89.7-.4 100.3-2 135.7-1.5 32.8-7 50.6-11.6 62.4a104 104 0 0 1-25 38.6 104 104 0 0 1-38.7 25.1c-11.8 4.6-29.6 10.1-62.4 11.6-35.4 1.6-46 2-135.7 2-89.7 0-100.3-.4-135.7-2-32.8-1.5-50.6-7-62.4-11.6a104 104 0 0 1-38.6-25A104 104 0 0 1 74 534c-4.6-11.8-10-29.6-11.5-62.4-1.6-35.4-2-46-2-135.7 0-89.7.4-100.3 2-135.7 1.5-32.8 7-50.6 11.5-62.4a104 104 0 0 1 25.2-38.6A104 104 0 0 1 137.8 74c11.8-4.6 29.6-10 62.4-11.5 35.4-1.6 46-2 135.7-2"/>
    <path d="M335.9 447.9a112 112 0 1 1 0-224 112 112 0 0 1 0 224zm0-284.5a172.5 172.5 0 1 0 0 345 172.5 172.5 0 0 0 0-345M555.5 156.6a40.3 40.3 0 1 1-80.6 0 40.3 40.3 0 0 1 80.6 0"/>
  </g>
</svg>
